<svg xmlns="http://www.w3.org/2000/svg" width="9.877" height="19.552" viewBox="0 0 9.877 19.552">
    <g id="prefix__facebook_4_" data-name="facebook (4)">
        <path id="prefix__XMLID_835_" d="M77.018 10.413h2.143v8.823a.315.315 0 0 0 .315.315h3.634a.315.315 0 0 0 .315-.315v-8.781h2.465a.315.315 0 0 0 .313-.279l.374-3.248a.315.315 0 0 0-.313-.351h-2.838V4.54c0-.614.33-.925.982-.925h1.856a.315.315 0 0 0 .316-.315V.318A.315.315 0 0 0 86.264 0H83.59a4.9 4.9 0 0 0-3.2 1.208 3.36 3.36 0 0 0-1.117 2.987v2.381h-2.25a.315.315 0 0 0-.315.315V10.1a.315.315 0 0 0 .31.313z" transform="translate(-76.703)" style="fill:#d4d4d4"/>
    </g>
</svg>
