<svg xmlns="http://www.w3.org/2000/svg" id="prefix__instagram_1_" width="19.192" height="19.192" data-name="instagram (1)" viewBox="0 0 19.192 19.192">
    <defs>
        <style>
            .prefix__cls-1{fill:#d4d4d4}
        </style>
    </defs>
    <g id="prefix__Group_4" data-name="Group 4">
        <g id="prefix__Group_3" data-name="Group 3">
            <path id="prefix__Path_2" d="M13.195 0H6a6 6 0 0 0-6 6v7.2a6 6 0 0 0 6 6h7.2a6 6 0 0 0 6-6V6a6 6 0 0 0-6.005-6zm4.2 13.195a4.2 4.2 0 0 1-4.2 4.2H6a4.2 4.2 0 0 1-4.2-4.2V6A4.2 4.2 0 0 1 6 1.8h7.2A4.2 4.2 0 0 1 17.4 6z" class="prefix__cls-1" data-name="Path 2"/>
        </g>
    </g>
    <g id="prefix__Group_6" data-name="Group 6" transform="translate(4.798 4.798)">
        <g id="prefix__Group_5" data-name="Group 5">
            <path id="prefix__Path_3" d="M132.8 128a4.8 4.8 0 1 0 4.8 4.8 4.8 4.8 0 0 0-4.8-4.8zm0 7.8a3 3 0 1 1 3-3 3 3 0 0 1-3 3z" class="prefix__cls-1" data-name="Path 3" transform="translate(-128 -128)"/>
        </g>
    </g>
    <g id="prefix__Group_8" data-name="Group 8" transform="translate(14.115 3.799)">
        <g id="prefix__Group_7" data-name="Group 7">
            <circle id="prefix__Ellipse_1" cx=".639" cy=".639" r=".639" class="prefix__cls-1" data-name="Ellipse 1"/>
        </g>
    </g>
</svg>
