<svg xmlns="http://www.w3.org/2000/svg" width="46" height="45" viewBox="0 0 46 45">
    <g id="prefix__Group_8825" data-name="Group 8825" transform="translate(-.361 -.001)">
        <g id="prefix__Ellipse_6" data-name="Ellipse 6" transform="translate(.361 .001)" style="stroke:#4e4e4e;fill:none">
            <ellipse cx="23" cy="22.5" rx="23" ry="22.5" style="stroke:none"/>
            <ellipse cx="23" cy="22.5" rx="22.5" ry="22" style="fill:none"/>
        </g>
        <g id="prefix__arrows" transform="translate(19.927 16.792)">
            <g id="prefix__Group_8704" data-name="Group 8704">
                <path id="prefix__Path_8331" d="M6.472 10.008v.931a.235.235 0 0 1-.169.216.306.306 0 0 1-.1.017.292.292 0 0 1-.195-.072L.075 5.747a.211.211 0 0 1 0-.322L6.007.072A.3.3 0 0 1 6.3.017a.235.235 0 0 1 .169.216v.931a.217.217 0 0 1-.074.16L1.72 5.586 6.4 9.848a.217.217 0 0 1 .072.16z" data-name="Path 8331" style="fill:#4e4e4e"/>
            </g>
        </g>
    </g>
</svg>
